
<svg width="163" height="42" viewBox="0 0 163 42" fill="none" xmlns="http://www.w3.org/2000/svg">
<path d="M40.1183 14.4258H30.8977L29.6565 16.7383H33.8678V27.5962H36.3724V16.7383H40.1183V14.4258Z" fill="#006398"/>
<path d="M10.9716 24.5789V14.4698H8.53345V25.1075C8.53345 26.473 9.66385 27.5962 11.0381 27.5962H16.136L17.3772 25.2837H11.6809C11.304 25.2837 10.9716 24.9754 10.9716 24.5789Z" fill="#006398"/>
<path d="M18.5962 14.4258V16.7383H24.4034L18.4633 27.5962H21.3447H28.2823V25.2837H22.6081L28.4817 14.4258H18.5962Z" fill="#006398"/>
<path d="M83.5613 30.2611V16.496H85.7999V18.7865C86.9082 17.0686 88.5484 16.1877 90.7205 16.1877C92.8927 16.1877 93.6463 16.7163 94.688 17.7514C95.7519 18.7645 96.2839 20.086 96.2839 21.6717V30.2391H94.0452V22.2443C94.0452 21.1431 93.6684 20.1961 92.8927 19.4473C92.1391 18.6984 91.2081 18.302 90.0999 18.302C88.9917 18.302 87.8613 18.6984 87.0412 19.4693C86.1989 20.2401 85.7999 21.1872 85.7999 22.3104V30.2391H83.5613V30.2611Z" fill="#006398"/>
<path d="M100.008 30.2611V16.496H102.246V18.7865C103.354 17.0686 104.995 16.1877 107.167 16.1877C109.339 16.1877 110.093 16.7163 111.134 17.7514C112.198 18.7645 112.73 20.086 112.73 21.6717V30.2391H110.492V22.2443C110.492 21.1431 110.115 20.1961 109.339 19.4473C108.585 18.6984 107.654 18.302 106.546 18.302C105.438 18.302 104.308 18.6984 103.487 19.4693C102.645 20.2401 102.246 21.1872 102.246 22.3104V30.2391H100.008V30.2611Z" fill="#006398"/>
<path d="M129.952 24.1604H118.05C118.205 25.3938 118.759 26.4289 119.69 27.2658C120.621 28.0807 121.751 28.4772 123.103 28.4772C124.455 28.4772 126.229 27.8164 127.204 26.495L129.376 27.1777C128.733 28.2349 127.869 29.0718 126.76 29.6665C125.652 30.2611 124.433 30.5695 123.103 30.5695C120.998 30.5695 119.247 29.8867 117.828 28.5432C116.432 27.1777 115.722 25.4599 115.722 23.4116C115.722 21.3634 116.41 19.6675 117.762 18.302C119.136 16.9365 120.82 16.2318 122.837 16.2318C124.854 16.2318 126.583 16.9145 127.913 18.302C129.287 19.6675 129.952 21.3634 129.952 23.4116C129.952 25.4599 129.952 23.72 129.908 24.1825L129.952 24.1604ZM118.094 22.3545H127.714C127.492 21.1652 126.938 20.1961 126.029 19.4252C125.142 18.6764 124.079 18.28 122.837 18.28C121.596 18.28 120.599 18.6544 119.734 19.4252C118.87 20.1741 118.316 21.1652 118.116 22.3545H118.094Z" fill="#006398"/>
<path d="M145.955 20.3723L143.717 21.033C143.318 20.2401 142.719 19.6014 141.943 19.1389C141.168 18.6764 140.303 18.4342 139.35 18.4342C137.954 18.4342 136.779 18.9187 135.87 19.8657C134.939 20.7907 134.452 21.98 134.452 23.3896C134.452 24.7991 134.917 25.9664 135.87 26.9355C136.801 27.8605 137.976 28.345 139.35 28.345C140.724 28.345 141.168 28.1027 141.943 27.6402C142.719 27.1777 143.295 26.539 143.717 25.7462L145.955 26.4069C145.379 27.6843 144.515 28.7194 143.34 29.4462C142.165 30.195 140.835 30.5474 139.35 30.5474C137.865 30.5474 135.582 29.8647 134.186 28.5212C132.811 27.1337 132.147 25.4158 132.147 23.3896C132.147 21.3634 132.834 19.6455 134.186 18.28C135.56 16.9145 137.289 16.2097 139.35 16.2097C141.411 16.2097 142.143 16.5841 143.34 17.3109C144.515 18.0597 145.401 19.0729 145.955 20.3503V20.3723Z" fill="#006398"/>
<path d="M78.4191 18.28C77.0448 16.9145 75.316 16.2097 73.2547 16.2097C71.1933 16.2097 69.4645 16.8925 68.0903 18.28C67.8686 18.5002 67.7135 18.6764 67.4475 18.9848C63.1032 23.9402 60.0444 26.7593 58.9805 27.3539C57.9166 27.9486 56.7419 28.2569 55.4342 28.2569C53.4172 28.2569 51.7105 27.5742 50.3584 26.1867C48.9842 24.7771 48.3193 23.0372 48.3193 21.011C48.3193 18.9848 49.0064 17.2449 50.3584 15.8573C51.7105 14.4698 53.395 13.7651 55.4342 13.7651C57.4733 13.7651 57.9166 14.0734 58.9805 14.668C59.712 15.0865 60.2883 15.6371 60.8202 16.2538L63.2583 15.3508C62.4826 14.2936 61.5295 13.4127 60.3769 12.7519C58.8919 11.893 57.2517 11.4745 55.4342 11.4745C52.7079 11.4745 50.4028 12.3996 48.5631 14.2276C46.7456 16.0335 45.8146 18.302 45.8146 21.033C45.8146 23.764 46.7234 26.0325 48.5631 27.8605C50.3806 29.6665 52.6857 30.5915 55.4342 30.5915C58.1826 30.5915 58.8919 30.173 60.3769 29.3141C61.596 28.6093 63.8568 26.3408 67.4032 22.5086C68.6887 21.1211 69.132 20.4824 69.9743 19.7336C70.883 18.9187 71.9469 18.4782 73.2547 18.4782C74.5624 18.4782 75.8258 18.9628 76.7789 19.9098C77.7098 20.8348 78.1974 22.0241 78.1974 23.4336C78.1974 24.8432 77.732 26.0105 76.7789 26.9795C75.8479 27.9045 74.6732 28.3891 73.2547 28.3891C71.8361 28.3891 70.7057 27.9266 69.7748 26.9795C68.8882 26.0545 68.4449 24.9533 68.3784 23.6539C67.6691 24.4247 67.0042 25.1075 66.4057 25.7242C66.7382 26.7813 67.2702 27.7284 68.0903 28.5432C69.4867 29.9087 71.2155 30.5695 73.2547 30.5695C75.2938 30.5695 77.0227 29.8867 78.4191 28.5432C79.7933 27.1777 80.5026 25.4599 80.5026 23.4116C80.5026 21.3634 79.8154 19.6675 78.4191 18.302V18.28Z" fill="#006398"/>
<path d="M154.489 18.4562V16.4961H150.632V13.743H148.393V26.2087C148.393 27.3539 148.792 28.323 149.568 29.0939C150.344 29.8647 151.319 30.2611 152.472 30.2611H154.489V28.1248H152.627C152.051 28.1248 151.585 27.9266 151.208 27.5081C150.832 27.0897 150.632 26.5831 150.632 25.9664V18.4782H154.489V18.4562Z" fill="#006398"/>
</svg>
